<?xml version="1.0" encoding="UTF-8" standalone="no"?>
<svg
   version="1.1"
   width="496.16293"
   height="576"
   id="svg1397"
   sodipodi:docname="logo.svg"
   xmlns:inkscape="http://www.inkscape.org/namespaces/inkscape"
   xmlns:sodipodi="http://sodipodi.sourceforge.net/DTD/sodipodi-0.dtd"
   xmlns="http://www.w3.org/2000/svg"
   xmlns:svg="http://www.w3.org/2000/svg">
  <defs
     id="defs1397" />
  <sodipodi:namedview
     id="namedview1397"
     pagecolor="#ffffff"
     bordercolor="#000000"
     borderopacity="0.25"
     inkscape:showpageshadow="2"
     inkscape:pageopacity="0.0"
     inkscape:pagecheckerboard="0"
     inkscape:deskcolor="#d1d1d1" />
  <path
     d="m 281.16293,117 c 3.82234,2.09868 3.82234,2.09868 7.9375,3.4375 7.80383,2.12832 14.07563,7.66105 18.25,14.375 8.51508,15.09591 10.61947,34.36789 6.3125,51.1875 -0.27843,0.9075 -0.55687,1.815 -0.84375,2.75 -0.79625,2.33938 -0.79625,2.33938 -0.65625,5.25 0.96938,0.39187 1.93875,0.78375 2.9375,1.1875 3.0625,1.8125 3.0625,1.8125 3.80567,4.1123 0.4587,4.82246 -0.89113,9.27395 -1.99317,13.9502 -0.26232,1.12156 -0.52464,2.24313 -0.79492,3.39868 -2.38007,9.74227 -5.31403,19.26894 -8.45508,28.78882 -0.22675,0.6967 -0.4535,1.3934 -0.68713,2.11121 -3.61464,11.03681 -7.69742,21.24244 -15.55115,29.98254 -2.98744,3.47765 -3.43697,6.45579 -3.19922,10.90625 0.55879,3.6291 1.45188,6.40038 4,9.18359 3.6303,2.58366 7.97332,3.88871 12.17188,5.30078 2.76562,2.07813 2.76562,2.07813 3.3374,4.0813 0.27221,2.67052 0.35532,5.31366 0.42822,7.99683 0.20075,1.99454 0.41197,3.98805 0.63282,5.98047 0.16748,2.06873 0.33151,4.13775 0.49218,6.20703 0.1186,1.04092 0.23719,2.08184 0.35938,3.1543 0.21434,3.12574 0.26741,5.6124 -0.48438,8.6582 -2.07695,2.35148 -4.13399,3.90092 -6.7854,5.56665 -3.36426,2.17744 -5.09332,4.60911 -6.2146,8.43335 -1.00483,7.05501 -0.34481,13.21146 4,19 3.6358,3.54712 6.5663,4.28578 11.5,4.5 5.08053,-0.18689 7.76714,-1.06184 11.5,-4.5 0.33,-0.99 0.66,-1.98 1,-3 0.66,0 1.32,0 2,0 2.13172,-7.28194 1.5158,-14.92432 -1,-22 -0.66,0 -1.32,0 -2,0 -1.70681,-1.62553 -3.3766,-3.29116 -5,-5 -0.99,0.33 -1.98,0.66 -3,1 -3.19147,-3.19147 -2.96073,-6.87526 -3.11352,-11.25146 0.005,-1.14163 0.0105,-2.28326 0.0159,-3.45948 0.003,-1.24394 0.006,-2.48789 0.01,-3.76953 0.008,-1.28519 0.0168,-2.57039 0.0254,-3.89453 0.005,-1.3084 0.009,-2.6168 0.0137,-3.96484 0.0118,-3.2201 0.0282,-6.44011 0.0488,-9.66016 9.61219,3.12973 9.61219,3.12973 13.8125,5 0.70769,0.30937 1.41539,0.61875 2.14453,0.9375 2.04293,1.0625 2.04293,1.0625 3.88888,2.48657 2.15937,1.57982 4.24746,2.70765 6.66187,3.85327 0.89251,0.42556 1.78503,0.85111 2.70459,1.28955 0.96115,0.4523 1.92231,0.9046 2.91259,1.37061 1.49395,0.70939 1.49395,0.70939 3.01807,1.43311 9.19509,4.35197 18.43473,8.60877 27.68945,12.83227 1.05301,0.48219 2.10601,0.96438 3.19092,1.46118 0.93763,0.42749 1.87526,0.85497 2.84131,1.29541 C 383.16293,340 383.16293,340 384.16293,341 c -0.38708,6.20149 -2.5657,11.30011 -5.0625,16.9375 -0.40702,0.92949 -0.81404,1.85899 -1.23339,2.81665 -8.4248,19.06398 -18.07195,38.09014 -30.76661,54.69897 -1.87029,2.45854 -3.63183,4.97715 -5.38769,7.51807 -5.93626,8.53425 -12.61903,16.29335 -19.54981,24.02881 -0.8366,0.94875 -1.6732,1.8975 -2.53515,2.875 -6.10659,6.81306 -12.5243,13.31654 -18.96485,19.8125 -0.86625,0.8793 -1.7325,1.7586 -2.625,2.66455 -5.97626,5.98414 -12.24273,11.40496 -18.875,16.64795 -0.95906,0.77042 -0.95906,0.77042 -1.9375,1.5564 -3.36273,2.69932 -6.76478,5.34769 -10.17724,7.98364 -1.30099,1.0075 -2.59796,2.0202 -3.8916,3.03711 -2.00714,1.5733 -4.02935,3.12502 -6.05616,4.67285 -0.61907,0.49033 -1.23814,0.98065 -1.87597,1.48584 -2.52821,1.90203 -4.33813,3.24265 -7.55762,3.33838 -3.42896,-1.47108 -6.44563,-3.4013 -9.50391,-5.51172 -0.6579,-0.44739 -1.31581,-0.89477 -1.99365,-1.35571 -13.57897,-9.32758 -26.2583,-19.86468 -38.42041,-30.9646 -1.68234,-1.461 -1.68234,-1.461 -4.58594,-2.24219 -1.03789,-1.64334 -2.03568,-3.31244 -3,-5 -1.90839,-2.14694 -3.56216,-3.37477 -6,-5 -1.40515,-1.60589 -2.80547,-3.21648 -4.17188,-4.85547 -2.9218,-3.4275 -6.00694,-6.70686 -9.07031,-10.00781 C 169.16293,444 169.16293,444 169.16293,442 c -0.66,0 -1.32,0 -2,0 -1.58895,-1.83952 -3.0503,-3.67948 -4.5,-5.625 -0.43707,-0.57524 -0.87415,-1.15049 -1.32446,-1.74316 -2.37793,-3.15132 -4.68985,-6.34241 -6.95288,-9.57715 -0.66903,-0.95399 -0.66903,-0.95399 -1.35157,-1.92725 -0.86053,-1.2346 -1.71364,-2.47441 -2.55859,-3.71973 -2.44397,-3.5802 -2.44397,-3.5802 -6.3125,-5.40771 0.33,-0.66 0.66,-1.32 1,-2 -1.27583,-2.46402 -1.27583,-2.46402 -3.1875,-5.3125 -8.17718,-12.87238 -15.814,-26.13139 -22.40234,-39.88989 -2.25918,-4.7529 -2.25918,-4.7529 -6.41016,-7.79761 0.0825,-0.825 0.165,-1.65 0.25,-2.5 -0.28369,-3.97168 -1.43971,-6.26105 -3.375,-9.66797 C 109.16293,345 109.16293,345 109.16293,342 c 1.55379,-3.10758 4.06692,-3.43613 7.25,-4.75 8.14736,-3.44648 16.10818,-7.2591 24.0625,-11.125 0.94214,-0.4577 0.94214,-0.4577 1.90332,-0.92465 0.62745,-0.30484 1.2549,-0.60967 1.90137,-0.92374 1.2539,-0.60914 2.5078,-1.21827 3.76172,-1.82739 0.61239,-0.29765 1.22479,-0.5953 1.85574,-0.90196 6.03714,-2.93024 12.10414,-5.79649 18.19235,-8.61904 4.50654,-2.11022 8.81487,-4.44298 13.10132,-6.9729 C 183.16293,305 183.16293,305 186.16293,305 c 1.25434,3.763 1.10696,7.27211 1.0625,11.1875 -0.004,0.74959 -0.009,1.49918 -0.0137,2.27148 -0.0118,1.84704 -0.0297,3.69404 -0.0488,5.54102 -3.96,1.65 -7.92,3.3 -12,5 0.66,0.66 1.32,1.32 2,2 2.3907,-0.0862 2.3907,-0.0862 5,-0.6875 0.88688,-0.16887 1.77375,-0.33773 2.6875,-0.51172 2.6541,-0.65805 2.6541,-0.65805 4.3125,-3.80078 0.66,0 1.32,0 2,0 -0.33,-0.66 -0.66,-1.32 -1,-2 -0.0837,-1.52148 -0.1073,-3.04656 -0.0977,-4.57031 0.005,-1.34385 0.005,-1.34385 0.01,-2.71485 0.0126,-1.40572 0.0126,-1.40572 0.0254,-2.83984 0.005,-0.94488 0.009,-1.88977 0.0137,-2.86328 0.0118,-2.3373 0.0283,-4.67448 0.0488,-7.01172 0.74766,-0.26555 1.49532,-0.53109 2.26563,-0.80469 1.47726,-0.5298 1.47726,-0.5298 2.98437,-1.07031 1.4618,-0.52207 1.4618,-0.52207 2.95313,-1.05469 4.97463,-1.65231 4.97463,-1.65231 7.98437,-5.57031 0.26813,-0.825 0.53625,-1.65 0.8125,-2.5 0.33,-0.66 0.66,-1.32 1,-2 0.49065,-7.4823 -1.02377,-10.76465 -5.9375,-16.375 -0.51691,-0.58652 -1.03382,-1.17305 -1.5664,-1.77734 -2.23631,-2.76178 -3.83269,-5.71272 -5.49613,-8.84766 -0.99,0 -1.98,0 -3,0 0.0619,-0.96422 0.12375,-1.92844 0.1875,-2.92188 0,-4.7806 -1.56881,-8.88037 -3.1875,-13.32812 -0.56646,-1.58713 -1.12913,-3.17562 -1.6875,-4.76562 -0.25136,-0.69384 -0.50273,-1.38768 -0.76172,-2.10254 C 186.16293,239 186.16293,239 186.16293,236 c -0.66,-0.33 -1.32,-0.66 -2,-1 -0.3931,-2.32289 -0.50749,-4.61845 -0.65625,-6.96875 -0.11343,-0.67031 -0.22687,-1.34063 -0.34375,-2.03125 -0.66,-0.33 -1.32,-0.66 -2,-1 -1.04808,-1.97523 -2.05204,-3.97482 -3,-6 0.66,-0.33 1.32,-0.66 2,-1 -0.99,-2.64 -1.98,-5.28 -3,-8 -0.33,0 -0.66,0 -1,0 -0.0811,-1.77008 -0.13926,-3.54122 -0.1875,-5.3125 -0.0522,-1.4792 -0.0522,-1.4792 -0.10547,-2.98828 0.29297,-2.69922 0.29297,-2.69922 1.49219,-4.49219 2.22566,-1.49182 4.16566,-1.85093 6.80078,-2.20703 -0.39832,-1.21623 -0.39832,-1.21623 -0.80468,-2.45703 -3.14056,-9.84574 -5.58706,-19.16197 -5.19532,-29.54297 0.66,0 1.32,0 2,0 -0.0464,-0.58266 -0.0928,-1.16531 -0.14063,-1.76563 -0.48059,-10.91636 3.13338,-20.86102 10.14063,-29.23437 4.30351,-4.4154 8.50218,-7.25109 14,-10 1.57893,-1.27153 3.13955,-2.56594 4.6875,-3.875 20.59191,-16.72517 50.99713,-15.80892 72.3125,-1.125 z m -89,207 c 0,1.32 0,2.64 0,4 -0.99,-0.33 -1.98,-0.66 -3,-1 0,0.66 0,1.32 0,2 1.95825,0.16768 3.9166,0.33411 5.875,0.5 1.09055,0.0928 2.1811,0.18562 3.30469,0.28125 1.60361,0.12438 3.21189,0.21875 4.82031,0.21875 0.66,0.66 1.32,1.32 2,2 1.40547,0.75052 2.82394,1.47689 4.25,2.1875 7.63368,4.19056 11.20723,10.04564 14.75,17.8125 0.99,0 1.98,0 3,0 0.76897,-1.74729 0.76897,-1.74729 1,-4 -1.03928,-2.5577 -1.03928,-2.5577 -2.6875,-5.0625 -0.77923,-1.28584 -0.77923,-1.28584 -1.57422,-2.59766 -1.71969,-2.31482 -3.34973,-3.75268 -5.73828,-5.33984 -0.99,0.495 -0.99,0.495 -2,1 0.33,-0.99 0.66,-1.98 1,-3 -0.9075,-0.59813 -1.815,-1.19625 -2.75,-1.8125 -3.25,-2.1875 -3.25,-2.1875 -5.1875,-3.8125 -5.30238,-3.53492 -10.93687,-3.58993 -17.0625,-3.375 z m -21,6 c 0,1.32 0,2.64 0,4 -0.33,-0.66 -0.66,-1.32 -1,-2 -7.44069,3.23083 -12.10486,10.66774 -15,18 -0.95548,2.67108 -0.95548,2.67108 -1,5 0.66,0.99 1.32,1.98 2,3 0.66,0 1.32,0 2,0 0.32871,-0.92619 0.32871,-0.92619 0.66406,-1.87109 2.81472,-7.51737 6.32452,-14.36514 12.14844,-20.00391 2.40481,-2.01004 2.40481,-2.01004 3.1875,-5.125 -0.99,-0.33 -1.98,-0.66 -3,-1 z m 57,21 c -0.66,0.66 -1.32,1.32 -2,2 -0.0692,3.09775 -0.0692,3.09775 0.49219,6.52344 0.65052,5.03631 0.65752,10.02977 0.63281,15.10156 -0.002,0.96116 -0.004,1.92231 -0.006,2.9126 -0.0454,7.52346 -0.40317,14.97026 -1.11914,22.4624 -0.61488,0.15855 -1.22976,0.31711 -1.86328,0.48047 -5.27889,1.47486 -5.27889,1.47486 -9.26172,5.08203 -0.28875,0.80437 -0.5775,1.60875 -0.875,2.4375 0.33,0.66 0.66,1.32 1,2 0.56848,-0.20496 1.13696,-0.40992 1.72266,-0.62109 C 222.63159,407.37404 228.02394,406 234.16293,406 c 0.2962,-3.03678 0.2962,-3.03678 -1.5625,-5.125 -1.71897,-3.43795 -1.21164,-5.49226 -0.72827,-9.2085 1.45297,-13.32438 1.56723,-27.86258 -2.70923,-40.6665 -0.33,0 -0.66,0 -1,0 z m -114,4 c 1,2 1,2 1,2 z m 39,1 c -1.5291,7.08575 -2.19361,13.9569 -2.1875,21.1875 -6.4e-4,0.75467 -10e-4,1.50933 -0.002,2.28687 -0.28313,3.55827 -0.28313,3.55827 1.18945,6.52563 0,2 0,4 0,6 0.33,0.33 0.66,0.66 1,1 0.47059,6.23529 0.47059,6.23529 -1.5,9.4375 -0.495,0.51562 -0.99,1.03125 -1.5,1.5625 0.33,0.66 0.66,1.32 1,2 2.83833,0.62135 2.83833,0.62135 6.1875,1 4.50933,0.57719 8.53616,1.44261 12.8125,3 0.33,-1.32 0.66,-2.64 1,-4 -0.33,0.66 -0.66,1.32 -1,2 -0.66,0 -1.32,0 -2,0 0.33,-1.32 0.66,-2.64 1,-4 -1.98,-0.66 -3.96,-1.32 -6,-2 -0.33,0.66 -0.66,1.32 -1,2 0,-0.99 0,-1.98 0,-3 -0.95761,-0.30623 -0.95761,-0.30623 -1.93457,-0.61865 C 158.16293,399 158.16293,399 157.43344,396.29443 c -0.10474,-1.12068 -0.20947,-2.24135 -0.31739,-3.39599 -0.12246,-1.21172 -0.24492,-2.42344 -0.37109,-3.67188 -0.10957,-1.27101 -0.21914,-2.54203 -0.33203,-3.85156 -0.12504,-1.27875 -0.25008,-2.5575 -0.37891,-3.875 -0.30709,-3.16546 -0.59667,-6.33156 -0.87109,-9.5 -0.66,0 -1.32,0 -2,0 0.33,-0.33 0.66,-0.66 1,-1 1.92835,-2.89252 2.421,-4.17802 2.875,-7.5 0.12117,-0.77344 0.24234,-1.54688 0.36719,-2.34375 -0.0223,-2.35782 -0.0223,-2.35782 -2.23438,-3.9375 -0.66258,-0.40219 -1.32515,-0.80438 -2.00781,-1.21875 z"
     fill="#4ab8bf"
     id="path1" />
  <path
     d="m 264.6473,4.13281 c 0.89568,0.314924 1.79136,0.629848 2.71418,0.9543152 2.8532,1.0051011 5.70235,2.0212001 8.55145,3.0378723 1.86562,0.6595994 3.7315,1.3184594 5.59765,1.9765625 3.72734,1.315522 7.4531,2.635371 11.17774,3.958496 5.1994,1.845309 10.40626,3.668725 15.61523,5.486817 9.96878,3.482429 19.91637,7.022907 29.85938,10.578124 0.8911,0.318379 1.78221,0.636757 2.70032,0.964783 15.17655,5.422698 30.34052,10.879881 45.49364,16.367707 1.34192,0.485244 2.68427,0.969268 4.0271,1.451965 3.23862,1.164755 6.46859,2.346922 9.68714,3.566131 1.2317,0.459229 2.4634,0.918457 3.73242,1.391602 1.08313,0.41105 2.16627,0.8221 3.28223,1.245605 3.18084,0.917106 5.78549,1.055805 9.07714,0.887207 0,0.66 0,1.32 0,2 1.15372,0.400899 2.30743,0.801797 3.4961,1.214844 1.64717,0.574127 3.2943,1.148355 4.9414,1.722656 0.87931,0.305589 1.75861,0.611177 2.66456,0.926026 5.21275,1.819613 10.40511,3.68454 15.58154,5.605224 1.66881,0.615004 1.66881,0.615004 3.37134,1.242432 2.18311,0.806368 4.3634,1.620447 6.54052,2.442871 1.00749,0.370686 2.01497,0.741372 3.05298,1.123291 0.88865,0.332498 1.7773,0.664995 2.69287,1.007569 2.98035,0.801601 5.58601,0.839199 8.65869,0.715087 0,0.99 0,1.980001 0,3 0.66,0.105704 1.32,0.211407 2,0.320313 3.80724,0.862578 7.35357,2.175502 11,3.554687 0.69868,0.256524 1.39735,0.513047 2.11719,0.777344 3.86204,1.450087 7.51643,2.912128 10.88281,5.347656 1.17584,3.527518 1.18035,6.737638 1.20313,10.410157 0.007,0.746694 0.0139,1.493389 0.0211,2.26271 0.0176,2.463266 0.0237,4.926306 0.0258,7.389636 10e-4,0.84673 0.002,1.69346 0.003,2.56585 -0.066,82.6128 -22.40719,166.03637 -55.25306,241.37165 -0.71407,1.65341 -1.42765,3.30704 -2.14062,4.96093 -4.42355,10.21801 -4.42355,10.21801 -6.60938,14.33594 -0.4125,0.89203 -0.825,1.78406 -1.25,2.70313 0.33,0.66 0.66,1.32 1,2 -0.99,0.33 -1.98,0.66 -3,1 -1.11347,1.59975 -1.11347,1.59975 -1.98828,3.6289 -0.36899,0.77521 -0.73798,1.55042 -1.11816,2.34912 -0.398,0.85288 -0.796,1.70576 -1.20606,2.58448 -11.91818,24.62646 -26.47671,48.60409 -43.26171,70.22265 -1.4527,1.87865 -2.68033,3.65092 -3.88282,5.71094 -1.72943,2.8065 -3.7324,5.14255 -5.90136,7.61621 -1.66407,1.91354 -3.27109,3.86332 -4.86817,5.83301 -6.49383,7.99219 -13.11753,15.76709 -20.17187,23.26953 -2.11381,2.26299 -4.15582,4.55452 -6.16406,6.91016 -6.22117,7.1771 -13.07385,13.8588 -20.30078,20.01562 -2.13113,1.85451 -4.19447,3.77203 -6.25586,5.70337 -6.42346,5.99752 -13.15889,11.46861 -20.13281,16.81079 -1.72269,1.3257 -3.43209,2.66685 -5.13868,4.01319 -5.71856,4.49267 -11.50571,8.73049 -17.71875,12.52734 -2.18538,1.36439 -4.29481,2.76322 -6.40625,4.23437 -0.60916,0.41565 -1.21832,0.83129 -1.84594,1.25953 -1.18221,0.80821 -2.35536,1.6299 -3.51709,2.46728 -4.65204,3.13298 -7.72185,3.16578 -13.12134,2.84351 -2.35529,0.41731 -2.35529,0.41731 -4,1 -0.0335,-0.58008 -0.067,-1.16016 -0.10156,-1.75782 -1.36423,-3.40463 -4.18715,-4.45231 -7.27344,-6.11718 -13.84226,-7.87892 -26.49246,-17.84226 -38.625,-28.125 -1.0896,-0.91566 -2.17945,-1.83101 -3.26953,-2.7461 -3.25518,-2.73772 -6.49423,-5.49383 -9.73047,-8.2539 -0.7425,-0.62778 -1.485,-1.25555 -2.25,-1.90235 -5.53816,-4.7454 -10.63321,-9.90574 -15.75001,-15.09765 -1.66545,-1.66788 -3.33192,-3.33475 -5,-5 -1,-1 -2,-2 -3,-3 -0.98999,0.33 -1.98,0.66 -3,1 -0.0206,-0.68063 -0.0413,-1.36125 -0.0625,-2.0625 -1.18669,-3.71831 -3.06699,-5.24143 -5.86328,-7.87891 -3.12694,-3.10339 -5.79652,-6.54256 -8.55468,-9.97266 -2.27954,-2.79198 -4.61031,-5.52318 -6.97364,-8.24365 -6.97742,-8.03307 -13.43965,-16.32535 -19.48339,-25.09228 -0.68063,-0.9075 -1.36125,-1.815 -2.0625,-2.75 -0.66,0 -1.32,0 -2,0 -1.93693,-2.09188 -2.91629,-3.52462 -3.41431,-6.35279 -0.65688,-2.96893 -1.71887,-4.78758 -3.39429,-7.31518 -0.576767,-0.88309 -1.153547,-1.76618 -1.747797,-2.67603 -0.62077,-0.93835 -1.24153,-1.87671 -1.8811,-2.8435 -6.30365,-9.7336 -12.13342,-19.56944 -17.5625,-29.8125 -0.55801,-1.04511 -1.11601,-2.09022 -1.69092,-3.16699 -7.78736,-14.63054 -15.12983,-29.32508 -21.54102,-44.61792 -0.45455,-1.06614 -0.90911,-2.13228 -1.37744,-3.23072 -0.58733,-1.412 -0.58733,-1.412 -1.18652,-2.85254 -1.07618,-2.4617 -1.07618,-2.4617 -4.2041,-3.13183 0.20447,-0.55003 0.40895,-1.10006 0.61962,-1.66675 0.5068,-3.10876 -0.3148,-4.77325 -1.53369,-7.66528 -0.42942,-1.03971 -0.85884,-2.07942 -1.30127,-3.15064 -0.46519,-1.09884 -0.93038,-2.19769 -1.40966,-3.32983 -3.84044,-9.30329 -7.40385,-18.57033 -10.375,-28.1875 -0.66,0 -1.32,0 -2,0 0.33,-0.99 0.66,-1.98 1,-3 -0.41017,-1.99242 -0.41017,-1.99242 -1.21485,-4.08985 -0.27392,-0.78439 -0.54785,-1.56879 -0.83008,-2.37695 -0.29455,-0.81533 -0.5891,-1.63066 -0.89257,-2.4707 -0.5772,-1.61129 -1.14902,-3.22453 -1.71485,-4.83985 -0.3866,-1.07109 -0.3866,-1.07109 -0.781,-2.16381 C 28.162903,277 28.162903,277 28.162903,273 c -0.99,0 -1.98,0 -3,0 1,-2 1,-2 2,-3 -0.99,0 -1.98,0 -3,0 0.27614,-0.85719 0.27614,-0.85719 0.55786,-1.73169 0.50288,-2.57993 0.21611,-4.04333 -0.48365,-6.56128 -0.21978,-0.79471 -0.43957,-1.58942 -0.66601,-2.4082 -0.23783,-0.82049 -0.47567,-1.64098 -0.7207,-2.48633 -0.22624,-0.83209 -0.45247,-1.66418 -0.68555,-2.52149 -0.87965,-3.18733 -0.87965,-3.18733 -2.00195,-6.29101 -0.66,-0.33 -1.32,-0.66 -2,-1 -1.2623,-4.47541 -1.2623,-4.47541 0,-7 -0.33068,-1.91665 -0.75185,-3.81798 -1.21485,-5.70703 -0.41089,-1.71607 -0.41089,-1.71607 -0.83008,-3.4668 -0.29455,-1.20076 -0.5891,-2.40152 -0.89257,-3.63867 -0.57675,-2.35943 -1.14856,-4.72007 -1.71485,-7.08203 -0.25773,-1.05035 -0.51546,-2.10069 -0.781,-3.18287 -0.52947,-2.73079 -0.67685,-5.15113 -0.56665,-7.9226 -0.99,0 -1.98,0 -2.9999997,0 0.33,-1.65 0.66,-3.3 0.9999997,-5 -0.6599997,-0.33 -1.3199997,-0.66 -1.9999997,-1 0.0232,-0.65485 0.0464,-1.30969 0.0703,-1.98438 0.12381,-6.26151 -0.42565,-12.04659 -1.63281,-18.1914 -0.46215,-2.98333 -0.50874,-5.81014 -0.4375,-8.82422 -0.99,0 -1.98001,0 -3,0 -0.33,-0.99 -0.66001,-1.98 -1,-3 0.66,0 1.32,0 2,0 0.495,-1.98 0.495,-1.98 1,-4 -1.32,-0.33 -2.64,-0.66 -4,-1 0,-1.98 0,-3.96 0,-6 0.66,-0.33 1.32,-0.66 2,-1 -0.66001,-0.33 -1.32,-0.66 -2,-1 0.18433,-0.92684 0.36867,-1.85367 0.55859,-2.8086 0.72704,-5.13799 0.0192,-10.11941 -0.49609,-15.2539 C -0.36333665,122.3211 -0.01943665,104.6691 0.16289335,86.999997 7.5476733,83.502489 14.980323,80.50415 22.701953,77.839841 c 1.64295,-0.574058 1.64295,-0.574058 3.31909,-1.159713 3.58732,-1.252284 7.17706,-2.497435 10.76685,-3.742631 2.52281,-0.879345 5.04546,-1.75913 7.56787,-2.639648 3.92834,-1.37091 7.85687,-2.74127 11.78628,-4.1091 9.22005,-3.209539 18.43485,-6.433767 27.64585,-9.66922 0.63417,-0.222737 1.26834,-0.445473 1.92173,-0.674959 3.1434,-1.104082 6.28672,-2.208391 9.43001,-3.312804 14.856977,-5.219813 29.716497,-10.431748 44.592097,-15.598251 6.64047,-2.307392 13.27517,-4.630832 19.90772,-6.960861 2.78506,-0.976903 5.57025,-1.953483 8.35547,-2.929932 1.89459,-0.664927 3.78878,-1.33098 5.68262,-1.998047 2.79873,-0.985432 5.59891,-1.966627 8.39941,-2.947021 0.84261,-0.297849 1.68523,-0.595698 2.55338,-0.902573 3.18963,-1.113195 6.21294,-2.134613 9.53793,-2.763687 0.65823,-0.142361 1.31645,-0.284722 1.99463,-0.431396 0.33,-0.66 0.66,-1.32 1,-2 1.87329,-0.636231 1.87329,-0.636231 4.4414,-1.242188 5.14178,-1.321815 10.13432,-2.908815 15.14844,-4.640625 0.75754,-0.2613373 1.51507,-0.5226746 2.29556,-0.7919312 2.35164,-0.8140849 4.70197,-1.6318331 7.0521,-2.4502563 2.38101,-0.8268574 4.76238,-1.6526597 7.14442,-2.476532 1.4709,-0.5089575 2.94118,-1.0197121 4.41074,-1.5325317 1.83137,-0.6348348 3.66905,-1.2514167 5.50734,-1.8659363 0.97948,-0.3594067 0.97948,-0.3594067 1.97876,-0.7260742 6.77489,-0.9181525 13.24313,1.6056403 19.50565,3.8588867 z m -27.28125,34.832031 c -0.8587,0.309013 -1.71741,0.618025 -2.60214,0.936402 -2.78641,1.004661 -5.56866,2.020346 -8.35098,3.036254 -1.90452,0.688973 -3.80931,1.377204 -5.71436,2.064698 -3.77153,1.362328 -7.54151,2.728812 -11.31006,4.099365 -4.51708,1.642425 -9.03776,3.274503 -13.56152,4.898437 -5.55657,1.994813 -11.11133,3.994525 -16.66406,6 0.33,0.66 0.66,1.32 1,2 -0.96712,-0.06147 -1.93424,-0.122944 -2.93067,-0.186279 -4.753,0.01167 -8.76147,1.535695 -13.17871,3.166748 -0.89623,0.320639 -1.79245,0.641279 -2.71584,0.971634 -2.9787,1.068279 -5.95158,2.151903 -8.92479,3.235397 -2.09358,0.753741 -4.18758,1.506321 -6.28198,2.257813 -4.5313,1.627144 -9.06054,3.259903 -13.58862,4.895996 -7.84881,2.832316 -15.70868,5.633106 -23.5708,8.428223 -0.67369,0.239521 -1.34739,0.479041 -2.04149,0.72582 -2.69783,0.959088 -5.39571,1.918057 -8.093667,2.876771 -4.6214,1.642304 -9.24192,3.287057 -13.86191,4.933297 -1.2325,0.439102 -2.465,0.878204 -3.73485,1.330613 -2.32255,0.827539 -4.64503,1.655258 -6.96744,2.483184 -1.02774,0.366069 -2.05548,0.732138 -3.11436,1.109299 -1.34504,0.47935 -1.34504,0.47935 -2.71724,0.968384 -1.75325,0.618202 -3.51399,1.215213 -5.27763,1.803103 0,0.99 0,1.98 0,3 -1.25684,-0.32291 -1.25684,-0.32291 -2.53907,-0.65235 -4.2645,-0.42837 -6.85722,0.55091 -10.83593,2.08985 -0.64067,0.24299 -1.28133,0.48597 -1.94141,0.73633 -1.56608,0.59604 -3.12557,1.20936 -4.68359,1.82617 0.33,0.66 0.66,1.32 1,2 -1.09313,-0.0206 -2.18625,-0.0412 -3.3125,-0.0625 -3.63135,-0.12295 -3.63135,-0.12295 -6.6875,1.0625 3.59918,61.05312 15.17441,119.67353 34.375,177.6875 0.25284,0.76776 0.50569,1.53551 0.7662,2.32654 2.50998,7.58943 5.06986,14.91963 8.8588,21.98596 0.67258,2.33163 1.33847,4.6652 2,7 1.30199,3.37184 2.7238,6.68998 4.15039,10.01074 0.97642,2.28618 1.93628,4.57903 2.89648,6.87207 6.34905,15.09084 13.495967,29.52436 21.265627,43.92969 0.51602,0.9622 1.03205,1.92441 1.56372,2.91577 0.49073,0.90049 0.98146,1.80098 1.48706,2.72876 0.4361,0.80413 0.87221,1.60827 1.32153,2.43677 1.21205,2.13359 1.21205,2.13359 2.91748,3.64013 1.70459,1.78796 1.85427,3.08368 2.39771,5.46607 1.14569,2.12184 1.14569,2.12184 2.58984,4.27343 0.53198,0.81783 1.06396,1.63566 1.61206,2.47828 0.57275,0.86568 1.14549,1.73137 1.7356,2.62329 0.58757,0.89469 1.17514,1.78938 1.78051,2.71118 11.08713,16.79105 23.14467,32.67861 36.28198,47.91382 0.61489,0.71672 1.22977,1.43344 1.86329,2.17187 17.19448,20.35285 17.19448,20.35285 37.13672,37.82813 0.66,0 1.32,0 2,0 0,0.66 0,1.32 0,2 1.96352,1.86493 1.96352,1.86493 4.5625,3.875 1.01062,0.80566 2.02125,1.61133 3.0625,2.4414 0.54914,0.43458 1.09828,0.86915 1.66406,1.3169 1.73218,1.38367 3.44179,2.79154 5.14844,4.20654 6.84991,5.64517 13.88775,10.98331 21.1875,16.03516 0.75805,0.54245 1.5161,1.0849 2.29712,1.6438 3.96822,2.84715 3.96822,2.84715 8.61694,3.12963 0.81211,-0.54398 1.62422,-1.08796 2.46094,-1.64843 0.5609,-0.35788 1.12181,-0.71575 1.69971,-1.08448 2.05557,-1.33867 4.05327,-2.74101 6.05029,-4.16552 0.74153,-0.5265 1.48306,-1.05301 2.24707,-1.59546 7.49433,-5.39317 14.62186,-11.20644 21.66064,-17.17725 1.75634,-1.48265 3.52427,-2.9516 5.29785,-4.41357 7.4828,-6.19481 14.49429,-12.72703 21.32178,-19.63526 1.61267,-1.63114 3.23342,-3.25392 4.85547,-4.87573 5.49354,-5.51165 10.86589,-11.08493 15.86719,-17.05273 0.50805,-0.60127 1.0161,-1.20254 1.53955,-1.82202 22.50539,-26.85213 40.9442,-56.50819 57.64795,-87.24048 0.553,-1.0174 1.10601,-2.03479 1.67578,-3.08301 2.27791,-4.23389 4.37662,-8.378 6.13671,-12.85449 0.83016,-1.63793 1.66183,-3.27516 2.5105,-4.90357 8.88136,-17.13381 15.63355,-35.22609 22.3645,-53.28393 0.27686,-0.74054 0.55372,-1.48107 0.83896,-2.24405 3.39925,-9.11431 6.51154,-18.24228 9.28604,-27.56845 0.33,-0.99 0.66,-1.98 1,-3 3.96943,-13.38668 7.5573,-26.87585 10.875,-40.4375 0.29794,-1.2006 0.59587,-2.4012 0.90284,-3.63819 1.59973,-6.63809 2.78814,-13.10537 3.22216,-19.92431 0.33,0 0.66,0 1,0 0.84586,-4.58406 1.68151,-9.16984 2.50855,-13.75733 0.28152,-1.55387 0.56561,-3.10727 0.85254,-4.66015 1.66725,-9.03412 2.9931,-17.86094 3.43017,-27.05078 C 457.16292,153 457.16292,153 458.16292,152 c 0.53078,-3.07957 0.76706,-6.20264 1.0625,-9.3125 0.13415,-1.39545 0.13415,-1.39545 0.271,-2.81909 0.85138,-9.63034 0.85324,-19.20992 0.6665,-28.86841 -4.12054,-1.5331 -8.24708,-3.04938 -12.375,-4.5625 -1.17562,-0.43764 -2.35125,-0.87528 -3.5625,-1.32617 -1.12148,-0.40928 -2.24296,-0.81856 -3.39843,-1.24024 -1.03689,-0.38229 -2.07378,-0.76457 -3.14209,-1.15845 -2.48993,-1.00932 -2.48993,-1.00932 -4.52198,0.28736 -0.33,0.33 -0.66,0.66 -1,1 0,-0.99 0,-1.98 0,-3 -1.53926,-0.54805 -1.53926,-0.54805 -3.10961,-1.10718 -23.20626,-8.264983 -46.39222,-16.583655 -69.54688,-24.992188 -4.54223,-1.648683 -9.08722,-3.289538 -13.6344,-4.92456 -1.86038,-0.670285 -3.71979,-1.343283 -5.57836,-2.018555 -2.79362,-1.01397 -5.59061,-2.018068 -8.38855,-3.02002 -1.27797,-0.467204 -1.27797,-0.467204 -2.58176,-0.943847 -2.03378,-0.722582 -4.09533,-1.366171 -6.16043,-1.993653 -1.9473,0.841887 -1.9473,0.841887 -3,2 0,-0.99 0,-1.979999 0,-3 -1.65615,-0.382187 -3.32457,-0.713951 -5,-1 -0.33,0.33 -0.66,0.66 -1,1 0,-0.659999 0,-1.32 0,-2 -13.96954,-5.174379 -27.97619,-10.238015 -42.00391,-15.252197 -2.54844,-0.911278 -5.0965,-1.823648 -7.64453,-2.736084 -1.1515,-0.410926 -1.1515,-0.410926 -2.32626,-0.830154 -0.71911,-0.257546 -1.43821,-0.515091 -2.17911,-0.780441 -0.67166,-0.239897 -1.34332,-0.479794 -2.03534,-0.72696 -1.52725,-0.568579 -3.02788,-1.207889 -4.52032,-1.862396 -5.82651,-2.064926 -10.56347,0.119213 -16.08741,2.153076 z"
     fill="#4ab7bf"
     id="path2" />
  <path
     d="m 318.97543,346.75 c 2.1875,1.25 2.1875,1.25 3.5,3.6875 0.6875,2.5625 0.6875,2.5625 0.6875,5.5625 0.66,0.33 1.32,0.66 2,1 0,1.32 0,2.64 0,4 -0.66,0 -1.32,0 -2,0 -0.0412,0.88687 -0.0825,1.77375 -0.125,2.6875 -1.17446,4.44618 -3.11175,5.77955 -6.875,8.3125 -3.60053,1.47714 -4.87794,1.04209 -8.625,-0.25 -4.50655,-2.33673 -5.79927,-3.25312 -7.625,-8 -1.1603,-5.80151 -0.17534,-10.41424 2.25,-15.75 -0.66,-0.66 -1.32,-1.32 -2,-2 0.7425,0.20625 1.485,0.4125 2.25,0.625 2.69277,0.64053 2.69277,0.64053 4.625,-0.625 3.93507,-1.8518 7.90157,-0.32625 11.9375,0.75 z"
     fill="#4bb8c0"
     id="path3" />
  <path
     d="m 191.16293,313 c 0.33,0 0.66,0 1,0 0,2.64 0,5.28 0,8 0.99,0.33 1.98,0.66 3,1 0,1.32 0,2.64 0,4 -0.99,0 -1.98,0 -3,0 0,0.66 0,1.32 0,2 -0.99,-0.33 -1.98,-0.66 -3,-1 0.66,-0.33 1.32,-0.66 2,-1 -0.18562,-0.84562 -0.37125,-1.69125 -0.5625,-2.5625 -0.47279,-3.71483 -0.0981,-6.76724 0.5625,-10.4375 z"
     fill="#50bdc5"
     id="path4" />
  <path
     d="m 241.16293,570 c 1.60464,0.31009 3.2087,0.62316 4.8125,0.9375 0.89332,0.17402 1.78664,0.34805 2.70703,0.52734 C 251.16293,572 251.16293,572 254.16293,573 c -2.68193,1.34097 -5.08407,1.0115 -8.02343,0.96875 -2.12071,0.0335 -3.96388,0.36035 -5.97657,1.03125 0,-0.66 0,-1.32 0,-2 0.66,0 1.32,0 2,0 -0.33,-0.99 -0.66,-1.98 -1,-3 z"
     fill="#48acb4"
     id="path5" />
  <path
     d="m 9.1629333,193 c 2.1081457,4.21629 2.1770037,6.39791 1.9999997,11 -0.99,-0.33 -1.9799997,-0.66 -2.9999997,-1 0.33,-3.3 0.66,-6.6 1,-10 z"
     fill="#49afb6"
     id="path6" />
  <path
     d="m 296.16293,301 c 3.37504,1.18582 5.64723,2.27574 8,5 -3.34373,-0.55729 -6.03313,-1.35174 -9,-3 0.33,-0.66 0.66,-1.32 1,-2 z"
     fill="#50bdc5"
     id="path7" />
  <path
     d="m 187.16293,305 c 0.66,0 1.32,0 2,0 0,2.31 0,4.62 0,7 -1.46063,-2.64739 -2,-3.89448 -2,-7 z"
     fill="#4eb9c3"
     id="path8" />
  <path
     d="m 98.162933,435 c 0.66,0 1.32,0 1.999997,0 0.66,1.32 1.32,2.64 2,4 -2.474997,-0.99 -2.474997,-0.99 -4.999997,-2 0.33,-0.66 0.66,-1.32 1,-2 z"
     fill="#48a7af"
     id="path9" />
  <path
     d="m 89.162933,419 c 1.32,1.32 2.64,2.64 4,4 -0.99,0 -1.98,0 -3,0 -0.66,-0.66 -1.32,-1.32 -2,-2 0.33,-0.66 0.66,-1.32 1,-2 z"
     fill="#48aab2"
     id="path10" />
  <path
     d="m 336.16293,69 c 2.97,0.495 2.97,0.495 6,1 -0.33,0.66 -0.66,1.32 -1,2 -0.66,0 -1.32,0 -2,0 0,-0.66 0,-1.32 0,-2 -0.99,-0.33 -1.98,-0.66 -3,-1 z"
     fill="#4eb6c1"
     id="path11" />
  <path
     d="m 122.16293,467 c 1.32,0.99 2.64,1.98 4,3 -0.33,0.66 -0.66,1.32 -1,2 -1.5,-1.375 -1.5,-1.375 -3,-3 0,-0.66 0,-1.32 0,-2 z"
     fill="#47aab2"
     id="path12" />
  <path
     d="m 109.16293,86 c 0.99,0 1.98,0 3,0 0,0.66 0,1.32 0,2 -1.65,0 -3.3,0 -5,0 0.66,-0.66 1.32,-1.32 2,-2 z"
     fill="#4eb7c1"
     id="path13" />
  <path
     d="m 201.16293,53 c 2.97,0.495 2.97,0.495 6,1 -0.99,0.33 -1.98,0.66 -3,1 -0.99,-0.66 -1.98,-1.32 -3,-2 z"
     fill="#4eb8c2"
     id="path14" />
  <path
     d="m 136.16293,485 c 0.99,0.33 1.98,0.66 3,1 -0.99,0.66 -1.98,1.32 -3,2 0,-0.99 0,-1.98 0,-3 z"
     fill="#48abb3"
     id="path15" />
  <path
     d="m 80.162933,403 c 0.66,1.32 1.32,2.64 2,4 -0.66,0 -1.32,0 -2,0 0,-1.32 0,-2.64 0,-4 z"
     fill="#49aab3"
     id="path16" />
  <path
     d="m 72.162933,388 c 0.66,1.32 1.32,2.64 2,4 -0.66,0 -1.32,0 -2,0 0,-1.32 0,-2.64 0,-4 z"
     fill="#49abb3"
     id="path17" />
  <path
     d="m 298.16293,363 c 0.66,1.32 1.32,2.64 2,4 -0.99,-0.66 -1.98,-1.32 -3,-2 0.33,-0.66 0.66,-1.32 1,-2 z"
     fill="#52bcc5"
     id="path18" />
  <path
     d="m 56.162933,355 c 0.99,1.485 0.99,1.485 2,3 -0.66,0.66 -1.32,1.32 -2,2 0,-1.65 0,-3.3 0,-5 z"
     fill="#4aacb5"
     id="path19" />
  <path
     d="m 85.162933,328 c 0.99,0.99 1.98,1.98 3,3 -0.99,0.495 -0.99,0.495 -2,1 -0.33,-1.32 -0.66,-2.64 -1,-4 z"
     fill="#4eb7c0"
     id="path20" />
  <path
     d="m 183.16293,326 c 0.66,0 1.32,0 2,0 0,0.66 0,1.32 0,2 0.66,0.33 1.32,0.66 2,1 -0.99,0 -1.98,0 -3,0 -0.33,-0.99 -0.66,-1.98 -1,-3 z"
     fill="#50bcc5"
     id="path21" />
  <path
     d="m 456.16293,144 c 0.33,0 0.66,0 1,0 0,1.98 0,3.96 0,6 -0.33,0 -0.66,0 -1,0 0,-1.98 0,-3.96 0,-6 z"
     fill="#4eb8c1"
     id="path22" />
  <path
     d="m 448.16293,109 c 1.32,0 2.64,0 4,0 -0.33,0.66 -0.66,1.32 -1,2 -0.99,0 -1.98,0 -3,0 0,-0.66 0,-1.32 0,-2 z"
     fill="#4eb8c2"
     id="path23" />
  <path
     d="m 208.16293,485 c 1.32,0.33 2.64,0.66 4,1 -0.99,0.495 -0.99,0.495 -2,1 -0.66,-0.66 -1.32,-1.32 -2,-2 z"
     fill="#4fb8c2"
     id="path24" />
  <path
     d="m 312.16293,373 c 1.32,0.33 2.64,0.66 4,1 -1.32,0.33 -2.64,0.66 -4,1 0,-0.66 0,-1.32 0,-2 z"
     fill="#50bbc5"
     id="path25" />
  <path
     d="m 43.162933,325 c 0.66,0 1.32,0 2,0 -0.33,0.99 -0.66,1.98 -1,3 -0.33,-0.99 -0.66,-1.98 -1,-3 z"
     fill="#49aab2"
     id="path26" />
  <path
     d="m 5.1629333,180 c 0.33,1.32 0.66,2.64 1,4 -0.66,-0.33 -1.32,-0.66 -2,-1 0.33,-0.99 0.66,-1.98 1,-3 z"
     fill="#49abb3"
     id="path27" />
  <path
     d="m 178.16293,153 c 0.33,0 0.66,0 1,0 0,1.65 0,3.3 0,5 -0.33,0 -0.66,0 -1,0 0,-1.65 0,-3.3 0,-5 z"
     fill="#4fb6bf"
     id="path28" />
  <path
     d="m 0.16293335,145 c 0.33,0 0.66,0 0.99999995,0 0,1.65 0,3.3 0,5 -0.32999995,0 -0.65999995,0 -0.99999995,0 0,-1.65 0,-3.3 0,-5 z"
     fill="#4aadb7"
     id="path29" />
  <path
     d="m 495.16293,97 c 0.33,0 0.66,0 1,0 0,1.65 0,3.3 0,5 -0.33,0 -0.66,0 -1,0 0,-1.65 0,-3.3 0,-5 z"
     fill="#46a7b0"
     id="path30" />
  <path
     d="m 198.16293,54 c 0.66,0.66 1.32,1.32 2,2 -1.32,-0.33 -2.64,-0.66 -4,-1 0.66,-0.33 1.32,-0.66 2,-1 z"
     fill="#4eb8c1"
     id="path31" />
  <path
     d="m 225.16293,565 c 4,1 4,1 4,1 z"
     fill="#43a5ad"
     id="path32" />
  <path
     d="m 176.16293,525 c 0.66,0.66 1.32,1.32 2,2 -0.99,0.495 -0.99,0.495 -2,1 0,-0.99 0,-1.98 0,-3 z"
     fill="#47a8b1"
     id="path33" />
  <path
     d="m 176.16293,453 c 0.66,0.66 1.32,1.32 2,2 -0.99,0.495 -0.99,0.495 -2,1 0,-0.99 0,-1.98 0,-3 z"
     fill="#50bac2"
     id="path34" />
  <path
     d="m 156.16293,429 c 0.99,0.495 0.99,0.495 2,1 -0.33,0.66 -0.66,1.32 -1,2 -0.33,-0.99 -0.66,-1.98 -1,-3 z"
     fill="#4fb9c1"
     id="path35" />
  <path
     d="m 138.16293,403 c 0.99,0.495 0.99,0.495 2,1 -0.33,0.66 -0.66,1.32 -1,2 -0.33,-0.99 -0.66,-1.98 -1,-3 z"
     fill="#4fb8c0"
     id="path36" />
  <path
     d="m 179.16293,327 c 4,1 4,1 4,1 z"
     fill="#52bcc5"
     id="path37" />
  <path
     d="m 148.16293,320 c 0.99,0.33 1.98,0.66 3,1 -0.99,0.33 -1.98,0.66 -3,1 0,-0.66 0,-1.32 0,-2 z"
     fill="#4db7c2"
     id="path38" />
  <path
     d="m 75.162933,304 c 0.99,0.33 1.98,0.66 3,1 -0.99,0 -1.98,0 -3,0 0,-0.33 0,-0.66 0,-1 z"
     fill="#4db7bf"
     id="path39" />
  <path
     d="m 441.16293,228 c 1,4 1,4 1,4 z"
     fill="#4eb7c0"
     id="path40" />
  <path
     d="m 442.16293,224 c 1,4 1,4 1,4 z"
     fill="#4db8bf"
     id="path41" />
  <path
     d="m 45.162933,191 c 1,4 1,4 1,4 z"
     fill="#4fb5bf"
     id="path42" />
  <path
     d="m 178.16293,179 c 0.33,0.99 0.66,1.98 1,3 -0.66,-0.33 -1.32,-0.66 -2,-1 0.33,-0.66 0.66,-1.32 1,-2 z"
     fill="#4eb6bf"
     id="path43" />
  <path
     d="m 492.16293,156 c 1,4 1,4 1,4 z"
     fill="#49afb5"
     id="path44" />
  <path
     d="m 457.16293,136 c 1,4 1,4 1,4 z"
     fill="#4eb9c2"
     id="path45" />
  <path
     d="m 458.16293,123 c 1,4 1,4 1,4 z"
     fill="#4eb9c2"
     id="path46" />
  <path
     d="m 495.16293,114 c 1,4 1,4 1,4 z"
     fill="#49adb6"
     id="path47" />
  <path
     d="m 86.162933,94 c 0.33,0.66 0.66,1.32 1,2 -0.99,-0.33 -1.98,-0.66 -3,-1 0.66,-0.33 1.32,-0.66 2,-1 z"
     fill="#4fb7c0"
     id="path48" />
  <path
     d="m 131.16293,78 c 0.99,0 1.98,0 3,0 -0.33,0.66 -0.66,1.32 -1,2 -0.66,-0.66 -1.32,-1.32 -2,-2 z"
     fill="#4eb8c1"
     id="path49" />
  <path
     d="m 359.16293,77 c 4,1 4,1 4,1 z"
     fill="#4eb6c1"
     id="path50" />
  <path
     d="m 436.16293,64 c 0.99,0 1.98,0 3,0 -0.33,0.66 -0.66,1.32 -1,2 -0.66,-0.66 -1.32,-1.32 -2,-2 z"
     fill="#47adb5"
     id="path51" />
  <path
     d="m 184.16293,533 c 0.99,0.495 0.99,0.495 2,1 -0.99,0.495 -0.99,0.495 -2,1 0,-0.66 0,-1.32 0,-2 z"
     fill="#47abb1"
     id="path52" />
  <path
     d="m 169.16293,518 c 0.33,0.66 0.66,1.32 1,2 -0.66,-0.33 -1.32,-0.66 -2,-1 0.33,-0.33 0.66,-0.66 1,-1 z"
     fill="#48aab2"
     id="path53" />
  <path
     d="m 212.16293,504 c 0.66,0.66 1.32,1.32 2,2 -0.66,0 -1.32,0 -2,0 0,-0.66 0,-1.32 0,-2 z"
     fill="#4dbac2"
     id="path54" />
  <path
     d="m 130.16293,477 c 0.66,0.66 1.32,1.32 2,2 -0.66,0 -1.32,0 -2,0 0,-0.66 0,-1.32 0,-2 z"
     fill="#47a8b2"
     id="path55" />
  <path
     d="m 309.16293,463 c 3,1 3,1 3,1 z"
     fill="#50bac3"
     id="path56" />
  <path
     d="m 96.162933,432 c 0.99,0.495 0.99,0.495 2,1 -0.99,0.495 -0.99,0.495 -2,1 0,-0.66 0,-1.32 0,-2 z"
     fill="#48a7b2"
     id="path57" />
  <path
     d="m 68.162933,381 c 0.66,0.66 1.32,1.32 2,2 -0.66,0 -1.32,0 -2,0 0,-0.66 0,-1.32 0,-2 z"
     fill="#49aab2"
     id="path60" />
  <path
     d="m 152.16293,378 c 0.99,0.495 0.99,0.495 2,1 -0.99,0.495 -0.99,0.495 -2,1 0,-0.66 0,-1.32 0,-2 z"
     fill="#51bcc4"
     id="path61" />
  <path
     d="m 305.16293,372 c 0.99,0.495 0.99,0.495 2,1 -0.99,0.495 -0.99,0.495 -2,1 0,-0.66 0,-1.32 0,-2 z"
     fill="#51bdc6"
     id="path62" />
  <path
     d="m 229.16293,367 c 0.66,0 1.32,0 2,0 -0.33,0.66 -0.66,1.32 -1,2 -0.33,-0.66 -0.66,-1.32 -1,-2 z"
     fill="#4dbac4"
     id="path63" />
  <path
     d="m 324.16293,363 c 0.33,0.66 0.66,1.32 1,2 -0.66,-0.33 -1.32,-0.66 -2,-1 0.33,-0.33 0.66,-0.66 1,-1 z"
     fill="#4fbac3"
     id="path65" />
  <path
     d="m 318.16293,344 c 0.66,0.66 1.32,1.32 2,2 -0.66,0 -1.32,0 -2,0 0,-0.66 0,-1.32 0,-2 z"
     fill="#50bbc4"
     id="path67" />
  <path
     d="m 313.16293,344 c 3,1 3,1 3,1 z"
     fill="#4ebcc4"
     id="path68" />
  <path
     d="m 381.16293,338 c 3,1 3,1 3,1 z"
     fill="#4cb4bc"
     id="path69" />
  <path
     d="m 205.16293,330 c 3,1 3,1 3,1 z"
     fill="#50bbc4"
     id="path70" />
  <path
     d="m 178.16293,329 c 0.33,0.66 0.66,1.32 1,2 -0.66,-0.33 -1.32,-0.66 -2,-1 0.33,-0.33 0.66,-0.66 1,-1 z"
     fill="#51bcc5"
     id="path71" />
  <path
     d="m 308.16293,310 c 0.66,0 1.32,0 2,0 -0.33,0.66 -0.66,1.32 -1,2 -0.33,-0.66 -0.66,-1.32 -1,-2 z"
     fill="#4dbac2"
     id="path73" />
  <path
     d="m 137.16293,76 c 3,1 3,1 3,1 z"
     fill="#4fb7c0"
     id="path81" />
  <path
     d="m 354.16293,75 c 0.99,0.495 0.99,0.495 2,1 -0.99,0.495 -0.99,0.495 -2,1 0,-0.66 0,-1.32 0,-2 z"
     fill="#4eb7c1"
     id="path82" />
  <path
     d="m 56.162933,64 c 3,1 3,1 3,1 z"
     fill="#4badb5"
     id="path83" />
  <path
     d="m 79.162933,56 c 3,1 3,1 3,1 z"
     fill="#4aadb5"
     id="path84" />
  <path
     d="m 244.16293,38 c 0.66,0 1.32,0 2,0 -0.33,0.66 -0.66,1.32 -1,2 -0.33,-0.66 -0.66,-1.32 -1,-2 z"
     fill="#4fb8c2"
     id="path85" />
  <path
     d="m 324.16293,24 c 3,1 3,1 3,1 z"
     fill="#48adb4"
     id="path86" />
  <path
     d="m 216.16293,8 c 3,1 3,1 3,1 z"
     fill="#4badb5"
     id="path87" />
  <path
     d="m 244.16293,575 c 2,1 2,1 2,1 z"
     fill="#3f9ba4"
     id="path88" />
  <path
     d="m 273.16293,512 c 2,1 2,1 2,1 z"
     fill="#4fbac3"
     id="path91" />
  <path
     d="m 244.16293,511 c 2,1 2,1 2,1 z"
     fill="#50bac3"
     id="path92" />
  <path
     d="m 251.16293,510 c 2,1 2,1 2,1 z"
     fill="#4fbac2"
     id="path93" />
  <path
     d="m 278.16293,506 c 2,1 2,1 2,1 z"
     fill="#50b8c0"
     id="path94" />
  <path
     d="m 226.16293,499 c 2,1 2,1 2,1 z"
     fill="#4fbac3"
     id="path96" />
  <path
     d="m 293.16293,496 c 2,1 2,1 2,1 z"
     fill="#4fb9c2"
     id="path98" />
  <path
     d="m 143.16293,493 c 2,1 2,1 2,1 z"
     fill="#49abb1"
     id="path99" />
  <path
     d="m 156.16293,449 c 2,1 2,1 2,1 z"
     fill="#4cbac2"
     id="path103" />
  <path
     d="m 337.16293,448 c 2,1 2,1 2,1 z"
     fill="#4fb9c1"
     id="path104" />
  <path
     d="m 150.16293,441 c 2,1 2,1 2,1 z"
     fill="#4eb8c1"
     id="path105" />
  <path
     d="m 109.16293,378 c 2,1 2,1 2,1 z"
     fill="#4db7c1"
     id="path114" />
  <path
     d="m 64.162933,375 c 2,1 2,1 2,1 z"
     fill="#48abb5"
     id="path116" />
  <path
     d="m 296.16293,360 c 2,1 2,1 2,1 z"
     fill="#51bcc4"
     id="path123" />
  <path
     d="m 325.16293,359 c 2,1 2,1 2,1 z"
     fill="#4fbbc5"
     id="path124" />
  <path
     d="m 300.16293,349 c 2,1 2,1 2,1 z"
     fill="#51bcc4"
     id="path127" />
  <path
     d="m 225.16293,349 c 2,1 2,1 2,1 z"
     fill="#4fbbc5"
     id="path128" />
  <path
     d="m 218.16293,337 c 2,1 2,1 2,1 z"
     fill="#4fbbc3"
     id="path133" />
  <path
     d="m 167.16293,334 c 2,1 2,1 2,1 z"
     fill="#4fbdc4"
     id="path134" />
  <path
     d="m 206.16293,328 c 2,1 2,1 2,1 z"
     fill="#4fbbc5"
     id="path136" />
  <path
     d="m 133.16293,328 c 2,1 2,1 2,1 z"
     fill="#4eb7c0"
     id="path137" />
  <path
     d="m 161.16293,314 c 2,1 2,1 2,1 z"
     fill="#4cb8c1"
     id="path142" />
  <path
     d="m 163.16293,313 c 2,1 2,1 2,1 z"
     fill="#4db7bf"
     id="path144" />
  <path
     d="m 165.16293,312 c 2,1 2,1 2,1 z"
     fill="#4cb8c3"
     id="path145" />
  <path
     d="m 308.16293,308 c 2,1 2,1 2,1 z"
     fill="#4eb9c2"
     id="path146" />
  <path
     d="m 314.16293,306 c 2,1 2,1 2,1 z"
     fill="#4eb8c1"
     id="path147" />
  <path
     d="m 194.16293,267 c 2,1 2,1 2,1 z"
     fill="#4fb8c1"
     id="path157" />
  <path
     d="m 18.162933,251 c 2,1 2,1 2,1 z"
     fill="#4babb4"
     id="path160" />
  <path
     d="m 439.16293,233 c 2,1 2,1 2,1 z"
     fill="#50b6be"
     id="path166" />
  <path
     d="m 291.16293,120 c 2,1 2,1 2,1 z"
     fill="#4db7bd"
     id="path182" />
  <path
     d="m 230.16293,106 c 2,1 2,1 2,1 z"
     fill="#4eb8c2"
     id="path185" />
  <path
     d="m 235.16293,105 c 2,1 2,1 2,1 z"
     fill="#4eb9c1"
     id="path186" />
  <path
     d="m 407.16293,94 c 2,1 2,1 2,1 z"
     fill="#4eb8c0"
     id="path188" />
  <path
     d="m 89.162933,93 c 2,1 2,1 2,1 z"
     fill="#4eb7c2"
     id="path189" />
  <path
     d="m 112.16293,85 c 2,1 2,1 2,1 z"
     fill="#4eb7c2"
     id="path192" />
  <path
     d="M 0.16293335,85 C 2.1629333,86 2.1629333,86 2.1629333,86 Z"
     fill="#449da6"
     id="path193" />
  <path
     d="m 365.16293,79 c 2,1 2,1 2,1 z"
     fill="#4eb5c0"
     id="path195" />
  <path
     d="m 358.16293,79 c 2,1 2,1 2,1 z"
     fill="#4eb7bd"
     id="path196" />
  <path
     d="m 135.16293,79 c 2,1 2,1 2,1 z"
     fill="#4fb7c0"
     id="path197" />
  <path
     d="m 363.16293,78 c 2,1 2,1 2,1 z"
     fill="#4db8c1"
     id="path198" />
  <path
     d="m 151.16293,71 c 2,1 2,1 2,1 z"
     fill="#4eb6bf"
     id="path199" />
  <path
     d="m 154.16293,70 c 2,1 2,1 2,1 z"
     fill="#4eb8c1"
     id="path200" />
  <path
     d="m 156.16293,69 c 2,1 2,1 2,1 z"
     fill="#4ebac2"
     id="path202" />
  <path
     d="m 99.162933,49 c 1.999997,1 1.999997,1 1.999997,1 z"
     fill="#4aadb3"
     id="path203" />
  <path
     d="m 220.16293,47 c 2,1 2,1 2,1 z"
     fill="#4eb7bf"
     id="path204" />
  <path
     d="m 225.16293,45 c 2,1 2,1 2,1 z"
     fill="#4fb7c2"
     id="path205" />
  <path
     d="m 265.16293,43 c 2,1 2,1 2,1 z"
     fill="#4ebac3"
     id="path206" />
  <path
     d="m 372.16293,41 c 2,1 2,1 2,1 z"
     fill="#4badb5"
     id="path207" />
  <path
     d="m 126.16293,40 c 2,1 2,1 2,1 z"
     fill="#49aeb5"
     id="path208" />
  <path
     d="m 166.16293,26 c 2,1 2,1 2,1 z"
     fill="#4aaeb8"
     id="path210" />
  <path
     d="m 171.16293,24 c 2,1 2,1 2,1 z"
     fill="#4baeb6"
     id="path211" />
  <path
     d="m 193.16293,16 c 2,1 2,1 2,1 z"
     fill="#4baeb5"
     id="path212" />
  <path
     d="m 209.16293,11 c 2,1 2,1 2,1 z"
     fill="#4bacb5"
     id="path213" />
  <path
     d="m 284.16293,10 c 2,1 2,1 2,1 z"
     fill="#48adb5"
     id="path214" />
  <path
     d="m 211.16293,10 c 2,1 2,1 2,1 z"
     fill="#4aacb5"
     id="path215" />
  <path
     d="m 278.16293,8 c 2,1 2,1 2,1 z"
     fill="#49acb5"
     id="path216" />
  <path
     d="m 241.16293,0 c 2,1 2,1 2,1 z"
     fill="#49abb4"
     id="path217" />
</svg>
